<?xml version="1.0" encoding="utf-8"?>
<!-- Generator: Adobe Illustrator 23.0.5, SVG Export Plug-In . SVG Version: 6.00 Build 0)  -->
<svg version="1.1" id="Layer_1" xmlns="http://www.w3.org/2000/svg" xmlns:xlink="http://www.w3.org/1999/xlink" x="0px" y="0px"
	 viewBox="0 0 16 16" style="enable-background:new 0 0 16 16;" xml:space="preserve">
<style type="text/css">
	.st0{fill:#77529E;}
</style>
<path class="st0" d="M6,0.3c0.2,0.2,0.2,0.6,0.1,0.9C5.5,2.2,5.2,3.4,5.2,4.6c0,4,3.3,7.3,7.3,7.3c0.5,0,1-0.1,1.5-0.2
	c0.3-0.1,0.6,0.1,0.8,0.3c0.2,0.3,0.2,0.6,0,0.9c-1.6,2-4,3.1-6.5,3.1C3.7,16,0,12.3,0,7.7c0-3.4,2.1-6.4,5.1-7.7
	C5.4-0.1,5.8,0,6,0.3z M4.9,1.3C2.5,2.6,1,5,1,7.7c0,4,3.3,7.3,7.3,7.3c2,0,3.8-0.8,5.2-2.2c-0.3,0-0.7,0.1-1,0.1
	c-4.6,0-8.3-3.7-8.3-8.3C4.2,3.4,4.4,2.3,4.9,1.3z"/>
</svg>
