<?xml version="1.0" encoding="utf-8"?>
<!-- Generator: Adobe Illustrator 23.0.5, SVG Export Plug-In . SVG Version: 6.00 Build 0)  -->
<svg version="1.1" id="Layer_1" xmlns="http://www.w3.org/2000/svg" xmlns:xlink="http://www.w3.org/1999/xlink" x="0px" y="0px"
	 viewBox="0 0 16 16" style="enable-background:new 0 0 16 16;" xml:space="preserve">
<style type="text/css">
	.st0{fill:#77529E;}
</style>
<path class="st0" d="M4.2,11c0.3,0.1,0.4,0.4,0.3,0.6l-1.5,4c-0.1,0.3-0.4,0.4-0.6,0.3c-0.3-0.1-0.4-0.4-0.3-0.6c0,0,0,0,0,0l1.5-4
	C3.6,11.1,3.9,10.9,4.2,11C4.2,11,4.2,11,4.2,11z M7.2,11c0.3,0.1,0.4,0.4,0.3,0.6l-1.5,4c-0.1,0.3-0.4,0.4-0.6,0.3
	c-0.3-0.1-0.4-0.4-0.3-0.6c0,0,0,0,0,0l1.5-4C6.6,11.1,6.9,10.9,7.2,11C7.2,11,7.2,11,7.2,11z M10.2,11c0.3,0.1,0.4,0.4,0.3,0.6
	l-1.5,4c-0.1,0.3-0.4,0.4-0.6,0.3c-0.3-0.1-0.4-0.4-0.3-0.6c0,0,0,0,0,0l1.5-4C9.6,11.1,9.9,10.9,10.2,11C10.2,11,10.2,11,10.2,11z
	 M13.2,11c0.3,0.1,0.4,0.4,0.3,0.6l-1.5,4c-0.1,0.3-0.4,0.4-0.7,0.3c-0.2-0.1-0.4-0.4-0.3-0.6l1.5-4C12.6,11.1,12.9,10.9,13.2,11
	C13.2,11,13.2,11,13.2,11z M13.4,4c-0.5-2.7-3.2-4.5-5.9-3.9C5.9,0.4,4.6,1.5,3.9,3C2,2.8,0.2,4.2,0,6.1S1.2,9.8,3.1,10
	c0.1,0,0.3,0,0.4,0H13c1.7,0,3-1.3,3-3C16,5.5,14.9,4.2,13.4,4z M8.5,1c2,0,3.7,1.5,4,3.6C12.5,4.8,12.7,5,13,5h0c1.1,0,2,0.9,2,2
	c0,1.1-0.9,2-2,2H3.5C2.1,9,1,7.9,1,6.5S2.1,4,3.5,4c0.2,0,0.4,0,0.6,0.1C4.4,4.1,4.6,4,4.7,3.7C5.2,2.1,6.8,1,8.5,1z"/>
</svg>
