<?xml version="1.0" encoding="utf-8"?>
<!-- Generator: Adobe Illustrator 23.0.5, SVG Export Plug-In . SVG Version: 6.00 Build 0)  -->
<svg version="1.1" id="Layer_1" xmlns="http://www.w3.org/2000/svg" xmlns:xlink="http://www.w3.org/1999/xlink" x="0px" y="0px"
	 viewBox="0 0 16 16" style="enable-background:new 0 0 16 16;" xml:space="preserve">
<style type="text/css">
	.st0{fill:#77529E;}
</style>
<path class="st0" d="M8.5,3C6.8,3,5.2,4.1,4.7,5.7C4.6,6,4.3,6.2,4.1,6.1C3.8,6,3.7,5.7,3.7,5.5c0,0,0,0,0,0c0.9-2.6,3.7-4,6.3-3.2
	c1.7,0.6,3,2,3.3,3.8C15,6.2,16.2,7.8,16,9.4c-0.2,1.5-1.5,2.6-3,2.6H4.5C4.2,12,4,11.8,4,11.5S4.2,11,4.5,11H13c1.1,0,2-0.9,2-2
	c0-1.1-0.9-2-2-2h0c-0.3,0-0.5-0.2-0.5-0.4C12.2,4.5,10.5,3,8.5,3z M0,7.5C0,7.2,0.2,7,0.5,7h5C5.8,7,6,7.2,6,7.5S5.8,8,5.5,8h-5
	C0.2,8,0,7.8,0,7.5z M2,9.5C2,9.2,2.2,9,2.5,9h9C11.8,9,12,9.2,12,9.5S11.8,10,11.5,10h-9C2.2,10,2,9.8,2,9.5z M0,13.5
	C0,13.2,0.2,13,0.5,13h9c0.3,0,0.5,0.2,0.5,0.5S9.8,14,9.5,14h-9C0.2,14,0,13.8,0,13.5z"/>
</svg>
